<svg xmlns="http://www.w3.org/2000/svg" viewBox="26 26 700 764" width="350" height="382"><path fill="#071e38" transform="translate(178 26)" d="M0 0c2 3 3 5 5 8 17 26 59 55 91 55 1 0 3-1 5-1 3 0 6-1 9-1 5-2 11-3 17-4 13-2 25-3 38-4 2 0 3-1 5-1 23 0 45-1 67 3 2 0 4 1 6 1 29 5 58 13 84 27 18 6 35 1 53-3 2 0 3-1 5-1 22-5 45-15 62-30 6-4 6-4 11-3 9 18-5 44-14 60 0 1-1 3-1 4 10-4 18-9 26-15 1 1 3 1 4 2 0 17-4 29-15 43l-2 0c-1 1-1 3-2 4-12 10-12 10-16 10 2 3 2 3 11 3 3-1 6-1 9-1 1 0 1 1 2 1 0 9-6 15-12 21-11 6-11 6-17 7 1 4 1 4 5 12 5 12 9 24 13 37 1 2 1 3 2 5 12 45 11 100-19 139l-7 7c-6 6-6 6-5 12 0 1 0 1 3 6 1 5 1 5 0 14 1 11 3 12 13 18 5 4 10 9 15 14l6 6c5 5 5 5 10 13 1 2 3 3 4 5 4 7 8 13 12 20 1 1 1 1 5 9 7 12 12 26 16 39 4 11 8 15 17 21 21 17 21 17 21 20l2 0c5 9 5 9 2 16l-2 0c0 1-1 2-1 3-8 2-8 2-14 1 1 2 1 3 2 5 1 6 1 6-2 12-5 3-8 5-14 3 0 3-1 5-1 8-5 8-5 7-15 7-1-1-3-1-4-2-2 2-2 7-2 10-4 4-4 4-9 6-13-4-16-20-22-31 0-2-1-3-2-5l-3 0c2 10 6 18 11 27 4 8 4 8 3 12-5 6-5 6-11 7-12-6-15-15-17-27-1-2-1-3-2-5l-4 0c-2 7-2 7-2 14-1 9-4 18-9 26 0 2-1 3-1 5l5 0 7 0 7 0c10 0 18 2 24 11 0 14-10 22-21 30-18 9-37 17-57 21-1 0-1 0-7 2-16 4-32 5-49 5-10 0-17 2-26 7-5 3-10 5-15 7-3 1-5 3-8 4-17 4-34 6-48-7-6-6-8-11-9-19-1-6-1-6-6-8-9-1-19-3-28-4-21-3-21-3-25-4-129-11-129-11-151 11-1 3-3 5-4 8-11 13-20 15-37 14-13-4-24-11-34-19-8-4-15-8-23-11-3-2-6-4-9-7-2-1-3-2-5-3-1-1-3-2-4-3-1-1-2-1-3-2l0-2c-1-1-3-1-4-2-21-14-30-41-29-66 2-13 7-22 16-31 0-2 0-2-5-6-22-18-29-47-29-75l0-9c1-34 17-61 46-78 8-5 8-5 9-10 0-4-1-7-1-11 0-9 0-9 3-15 8-4 12-6 21-4 9 1 13-3 21-8 8 0 15 2 23 5 5-2 5-6 6-11-1-4-1-4-7-10-32-29-42-73-37-114l3-12c0-2 1-4 1-6 4-15 8-29 15-42 1-2 2-5 3-7 4-9 8-17 14-25 1-2 2-3 3-5 11-15 11-15 15-19 0-7-6-8-11-11-7-7-13-15-11-25 3-3 15 1 19 2-1-1-2-3-3-4l0-2c-1-1-3-1-4-2-8-10-12-21-12-34l0-6c0-5 0-5 4-12 7 2 11 8 15 13 1 0 1 0 6 2 0-2-1-4-1-6-3-13-9-59 12-59zm504 575c1 8 4 9 10 14 2 2 3 4 5 6 4 5 4 5 7 5 1-1 1-3 2-4l-11-11c-2-3-5-5-7-8-2-2-2-2-6-2zm-14 15c0 7 2 8 7 13 1 2 2 3 3 5 2 1 3 3 4 4 2 3 5 6 7 9l4-4c-2-2-4-5-6-7-2-3-5-7-7-10-9-13-9-13-12-10zm-16 13c-2 6 1 9 5 14 1 2 2 3 3 5 2 4 5 7 7 11 2-1 3-1 5-2-3-8-7-13-11-20-1-1-1-1-5-8l-4 0z"/><path fill="#fc721b" transform="translate(157 434)" d="M0 0c2 1 5 1 7 2 11 3 20 7 30 13l9 3c17 9 17 9 20 13 2 1 5 1 7 2l2 2c3 1 5 2 8 3 3 2 6 4 10 6 0 1 0 1 4 4 5 3 5 3 12 10 1 1 3 2 4 2 6 4 10 8 15 12l5 5c15 13 15 13 15 22-1 0-1 0-6 1l0 3c11 3 20 3 31 2l-5-5c2-7 7-9 13-11 0-1 1-2 1-3l3 0c0-1 1-2 1-3 7-5 14-9 21-12 5-2 5-2 9-6 5-2 10-3 15-5 2-1 4-3 6-4 10-4 21-7 32-10 5-2 9-3 14-5 9-3 18-5 28-7 3-1 5-1 8-2 13-2 26-5 40-4 1 0 1-1 2-1l13 0c0 2 1 3 1 5-6 2-6 2-11 2-6 1-12 3-18 4-7 2-15 4-22 5-16 4-31 8-46 13-4 1-7 2-11 3-6 2-12 5-18 8-4 1-8 3-12 4-2 1-5 3-7 4-2 1-4 1-6 2-2 2-4 3-6 5 2 0 2 0 8-2l6 0 0-2c22-10 46-19 70-22 3-1 6-3 9-4 4-1 9-2 13-3 2-1 4-1 7-2 9-2 17-3 27-3 2-1 4-1 6-2 7-2 13-3 20-3l7 0c7 1 9 2 13 9 0 5 0 5-1 11 0 1 0 1-1 9-1 3-1 6-2 10-3 17-3 17-4 24 0 4 0 4-3 7-7 3-14 5-21 7-18 5-35 11-44 28 0 10 3 14 10 20 2 1 4 1 5 2 2 1 3 1 5 2 0 6 0 6-6 11-4 7-3 14 0 22 3 2 7 3 10 5 0 1 1 3 1 4-5 3-5 3-10 2 0-2-1-3-1-5-1-5-1-5-7-7-2-1-5-2-7-3-20-2-35 11-46 27-6 8-10 16-14 25-5 8-11 12-19 15-2 1-4 1-6 2-2 1-3 1-5 2-8 3-17 6-25 10-19 7-19 7-25 6 0-6-1-13 0-19l0-6c-1-8-1-17 0-25 0-6-1-12-1-18 0-2 0-4 1-6-1-4-1-9-1-13-4-1-4-1-5 0l0 19 0 13 0 19c0 6 0 12-1 18l0 6c0 14 0 14-3 17-13 4-29 5-41-4-1-5-1-5-1-12l0-8 0-8c0-5 0-10-1-15l0-7c0-21 0-21-3-26 1-1 1-3 2-4l0-18 0-6c-1-4-1-8-1-12l0-20c0-4-1-9-1-14l0-6c0-6 0-11-1-16-1 0-1 0-6-1 0 11 1 22 1 33l0 12 0 16c1 3 1 7 1 10 0 22 0 22 3 28 0 1-1 1-1 2l0 14 0 8 0 9 0 18 0 8c0 6 0 6-1 8-12-2-21-9-31-15-9-5-17-10-26-14-5-3-11-6-16-9-10-7-20-13-31-18-4-5-4-5-8-12-7-14-16-25-30-33 1-4 1-4 6-7 7-8 7-8 7-18-3-8-8-11-15-15 1-5 1-5 6-7 7-4 9-8 10-15-3-19-15-26-31-34-6-2-11-4-17-6-10-3-10-3-12-10 0-3-1-6-1-9 0-2-1-5-1-7-2-7-3-13-3-19-1-11-1-11-2-14 0-11 0-11 3-16l2 0 0-2c9 0 9 0 12 1l0 2c2 0 5 1 7 1 8 2 14 4 22 7 4 2 9 3 13 5 50 20 50 20 67 34 1 1 3 1 4 2 12 5 23 12 34 19 1 1 3 1 4 2-2-5-2-5-7-7l-9-6c-2-1-3-2-5-4-2-1-3-2-5-3-21-14-45-26-68-36-6-3-6-3-14-8-3-1-5-1-8-2-11-4-11-4-16-9 6-11 23-1 31 4z"/><path fill="#fdefd8" transform="translate(258 138)" d="M0 0l7 0c5 0 5 0 6 1l7 0c19 2 41 14 55 28l0 2c0 1 0 1 4 2 0 1 1 2 2 3 1 1 1 1 5 3 5 7 9 14 14 21 1 2 2 4 4 5 3 5 3 5 6 13 0 2 1 3 2 5l3 9c0 2 1 3 2 4 5-3 5-3 8-8l2 0c0-1 1-3 2-5l8-8 6-9c3-3 3-3 5-3 0-1 1-2 2-4 2-1 4-2 7-4 8-6 8-6 10-9 5-2 5-2 8-2l0-2c4-3 4-3 13-6 2-1 4-2 6-4 3 0 6-1 9-2l3-2c3 0 7-1 11-2 1 0 2-1 4-2 15-1 30-1 45 4 2 1 5 2 8 3 7 2 7 2 13 7-3 10-9 11-18 14-1 1-2 2-2 3 1 1 3 2 5 2l0 2c1 0 3 1 4 1 19 4 32 20 43 35 1 2 2 3 4 4 1 4 3 7 5 11 0 2 0 2 4 8 7 17 10 36 10 55-4 3-4 3-7 3-1-1-1-1-4-5-4-7-7-7-15-9-3-4-3-4-5-11-2-7-4-12-7-19-1-2-1-5-1-8-2 0-3 0-4-1-5-4-10-9-14-14-24-23-55-24-85-18-36 13-54 38-68 72-4 4-14 0-17-1l-12 0c-11 0-11 0-12-1-1-7-1-7-1-13 0-6 0-6-2-9l0-7c-1-1-2-3-3-5-2-3-3-6-5-9-3-7-6-14-11-20-2-2-3-4-4-6-3-2-6-4-8-6l-5-5c-2 0-4-1-5-2-1 0-1-1-1-2-4-1-7-2-10-3-3-1-5-2-7-2-26-10-58-5-80 12-2 1-4 3-6 4-10 9-17 21-24 32-2 2-2 2-8 3-8 0-11 1-15 8-1 7-1 7 1 9-1 7-3 12-6 19-1 3-2 5-3 8-2 7-2 7-6 8l0-11c-1-2-1-4-1-6 1-6 2-10 5-16 0-2 0-4 1-6l3-6c0-4 1-8 2-13l2 0 0-5c2-8 5-16 10-24l2 0c0-1 1-3 2-5 8-16 8-16 15-21 2-2 4-5 7-8 7-7 7-7 12-11l4-4c3-1 6-3 10-4l1-2c1 0 1 0 9-1l0-2c8-2 8-2 13-2 6 0 6 0 11-3l2 0 0-4c-2 0-3-1-4-2-8-4-8-4-10-8 2-12 12-11 22-11z"/><path fill="#fdefd8" transform="translate(170 285)" d="M0 0c1 5 1 5 1 10 1 37 15 67 48 85 26 12 45 11 73 4l3 0 0-2 15-9c2-1 3-3 5-4l4 0c0-1 1-3 1-4 2-1 3-3 5-4 3-5 6-9 9-14 1-2 3-3 4-5 1-1 1-1 3-9 5-11 7-14 18-19 11 0 19 1 28 8 1 4 1 4 2 10l3 12c0 2 1 4 1 6 4 12 9 23 18 32 1 1 2 3 3 4 17 17 41 23 64 24l8 0c6 0 6 0 14-3 1 0 1 0 5-2 2-1 4-1 6-2 2-1 4-2 6-2 15-7 26-18 36-30l4-4c4-8 7-16 10-24 1-1 1-3 2-4 1-5 2-9 3-14 2-2 9-2 12-2l6 0c5 0 5 0 7 2 1 5 1 9 2 14l0 6c0 5-1 10-3 15-5 1-5 1-13-5l0 10c-6 22-14 40-33 53-1 1-3 2-4 3l-9 0c-14 2-28 6-42 10-12 3-23 5-35 8-7 1-7 1-16 4-34 6-97 16-129 0-1 0-1 0-7-1-12-1-22-3-33-7-2 0-3-1-5-1-14-3-28-7-41-13-2-1-5-2-7-3-8-4-15-8-23-12l-6 0c-8 0-9-3-13-9-2-1-3-3-5-4-1-3-3-5-4-8-1-1-1-1-4-7-1-3-3-7-4-10-1-2-2-3-3-5-1-4-1-4-1-9 0-6 0-6-2-15l-6 3c-3-1-3-1-5-4-1-9-1-9 2-18 0-1 0-1 1-5 2-9 5-17 10-25l2 0c1-1 1-3 2-4 2-2 2-2 7-1z"/><path fill="#fdefd8" transform="translate(494 240)" d="M0 0l4 0c16 2 32 10 41 23 1 0 1 0 4 2 8 12 15 23 15 38 0 1 0 1 2 8 0 20-6 38-19 54-1 1-1 1-4 5-7 8-15 13-24 18-2 1-3 2-5 3-11 5-20 5-31 5-3 1-6 1-9 1-12-1-22-5-32-12-2-1-3-2-5-3-10-7-22-17-22-31l-2 0c-5-13-8-28-3-42l0-7c3-13 9-24 19-34l2 0c1-1 1-3 2-4 9-11 20-17 33-20 3-1 6-3 9-4l10 0c3-3 11-1 15 0z"/><path fill="#fdefd8" transform="translate(298 230)" d="M0 0c2 1 3 2 5 3 25 17 34 45 32 74-3 22-13 41-31 55-2 1-3 2-5 4-20 13-48 14-70 5-11-6-18-12-26-21-2-2-5-4-7-6-4-7-7-14-9-22l-3-9c-3-16-3-16 0-21l0-10c3-14 8-25 17-36 1-1 2-3 3-4 4-4 8-6 13-9 1-1 1-2 2-3 7-3 7-3 10-3 0-1 1-2 1-3 8-3 14-4 22-4 2 0 4-1 6-1 16 0 27 3 40 11z"/><path fill="#fdc018" transform="translate(208 410)" d="M0 0c9 5 18 10 28 13l6 3c3 1 7 2 10 3 6 1 11 2 16 4 5 1 9 2 14 3 1 1 1 1 6 2 9 2 18 3 27 4 1 1 1 1 2 1 4 1 9 1 13 2 2 0 4 0 7 1 38 3 80 4 117-7 7-1 14-3 21-4 8-2 15-3 23-6 36-12 36-12 48-8 1 1 1 2 2 3 1 1 1 1 8 2 3 2 6 3 9 4 8 0 12-1 19-4 3 1 3 1 6 6 3 17-4 31-15 43-5-1-5-1-9-8-6-2-11-2-17-3-7-1-8-5-12-11-9-4-26 1-36 2-5 1-10 2-15 2-21 4-42 9-63 15-2 1-5 2-7 2-6 2-12 4-17 6l-15 6c-5 1-5 1-13 6l-12 6c-11 5-22 12-32 19-8 2-17 0-23-5-4-4-7-7-10-11-3-2-5-4-8-6-2-1-4-3-6-5-6-4-11-8-17-12-8-6-8-6-10-10-1 0-1 0-4-1-5-2-9-5-14-7-1-1-1-1-8-4-5-3-11-6-16-10-5-1-9-3-14-5-20-8-20-8-22-10 0-10 5-15 12-22 0-1 1-2 1-3 8-2 13 0 20 4z"/><path fill="#fdefd8" transform="translate(157 434)" d="M0 0c2 1 5 1 7 2 11 3 20 7 30 13l9 3c17 9 17 9 20 13 2 1 5 1 7 2l2 2c3 1 5 2 8 3 3 2 6 4 10 6 0 1 0 1 4 4 5 3 5 3 12 10 1 1 3 2 4 2 6 4 10 8 15 12l5 5c15 13 15 13 15 22-1 0-1 0-6 1l0 3c11 3 20 3 31 2l-5-5c2-7 7-9 13-11 0-1 1-2 1-3l3 0c0-1 1-2 1-3 7-5 14-9 21-12 5-2 5-2 9-6 5-2 10-3 15-5 2-1 4-3 6-4 10-4 21-7 32-10 5-2 9-3 14-5 9-3 18-5 28-7 3-1 5-1 8-2 13-2 26-5 40-4 1 0 1-1 2-1l13 0c0 2 1 3 1 5-6 2-6 2-11 2-6 1-12 3-18 4-7 2-15 4-22 5-16 4-31 8-46 13-4 1-7 2-11 3-6 2-12 5-18 8-4 1-8 3-12 4-2 1-5 3-7 4-2 1-4 1-6 2-2 2-4 3-6 5 2 0 2 0 8-2l6 0 0-2c22-10 46-19 70-22 3-1 6-3 9-4 4-1 9-2 13-3 2-1 4-1 7-2 9-2 17-3 27-3 2-1 4-1 6-2 7-2 13-3 20-2 2-1 5-1 7-1 6 1 6 1 10 5-2 6-11 6-16 8-6 1-11 2-17 3-6 1-11 3-17 4-6 2-11 3-17 5-5 1-10 2-15 4-1 0-1 0-9 2-14 4-28 9-41 14-8 3-17 5-25 7-4 2-9 3-13 5-2 1-4 1-6 2-7 3-14 5-20 8-2 0-4 1-6 2-6 2-11 4-16 7-21 7-40 6-57-8-1-1-1-1-6-4-2-2-5-3-7-5-13-8-27-16-41-24-3-2-7-4-10-6-13-8-27-15-41-22-3-2-7-3-10-5-7-4-14-7-21-10-2-1-5-3-7-4-4-2-8-4-11-5l-6-3c-4-2-7-4-11-5-8-3-14-7-21-11 2-3 2-3 4-3l0-2c9 0 9 0 12 1l0 2c2 0 5 1 7 1 8 2 14 4 22 7 4 2 9 3 13 5 50 20 50 20 67 34 1 1 3 1 4 2 12 5 23 12 34 19 1 1 3 1 4 2-2-5-2-5-7-7l-9-6c-2-1-3-2-5-4-2-1-3-2-5-3-21-14-45-26-68-36-6-3-6-3-14-8-3-1-5-1-8-2-11-4-11-4-16-9 6-11 23-1 31 4z"/><path fill="#fc721b" transform="translate(143 623)" d="M0 0c19 14 27 38 34 60l3 9c1 4 2 9 3 13 0 1 0 1 2 7 3 17 6 38-8 51-18 7-32 0-47-11-9-6-17-11-26-16-20-12-43-27-46-51 6-10 8-9 19-9 6 3 6 3 11 6l6 0c-1-5-1-5-6-8-7-11-11-19-10-31 6-9 9-8 19-7 10 3 15 9 21 18 1 1 2 2 3 4 0-1 0-1 3-1-1-7-1-7-3-13-1-14-1-14 4-21 7-4 12-3 18 0z"/><path fill="#fc721b" transform="translate(487 644)" d="M0 0c5 10 2 17-2 27-1 2-1 4-2 6 8-3 12-9 17-15 9-7 13-7 24-3 7 4 7 4 7 14-3 9-8 14-14 21-5 6-5 6-5 8 6-1 11-4 17-7 4-1 4-1 12-1l4 10 3 3c-2 14-14 24-25 32-1 0-1 0-7 2-1 2-1 3-2 5-4 2-8 5-12 7-3 2-6 3-9 5-6 4-11 6-18 9-2 1-3 3-5 4-11 6-21 9-34 8l-6-6c-2 0-5-1-7-1-11-14-5-34-1-50 0-2 1-4 1-6 2-5 2-5 5-10 1-2 1-4 2-6 6-19 29-70 57-56z"/><path fill="#fdc018" transform="translate(603 462)" d="M0 0c8 6 22 16 25 26 1 1 3 1 4 2 12 14 21 31 29 48 1 3 3 6 4 8 5 10 10 19 14 28 2 1 5 2 7 3 1 2 3 3 4 5l9 6c21 17 21 17 21 20l2 0c5 9 5 9 2 16l-2 0c0 1-1 2-1 3-8 2-8 2-14 1 1 2 1 3 2 5 1 6 1 6-2 12-5 3-8 5-14 3 0 1 0 1-1 8-5 8-5 7-15 7-1 0-1 0-4-2-2 2-2 7-2 10-4 4-4 4-9 6-13-4-16-20-22-31 0-2-1-3-2-5l-3 0c2 10 6 18 11 27 4 8 4 8 3 12-5 6-5 6-11 7-10-5-13-11-16-21-1-2-2-4-2-6-1-9 3-12 9-19 14-25 18-51 11-79 0-1 0-1-1-5-4-19-12-36-23-52l0-3c-1-1-3-1-4-2-3-4-5-7-8-11-4-5-9-10-14-14 2-8 5-15 13-13zm79 139c1 8 4 9 10 14 2 2 3 4 5 6 4 5 4 5 7 5 1-1 1-3 2-4l-11-11c-2-3-5-5-7-8-2-2-2-2-6-2zm-14 15c0 7 2 8 7 13 1 2 2 3 3 5 2 1 3 3 4 4 2 3 5 6 7 9l4-4c-2-2-4-5-6-7-2-3-5-7-7-10-9-13-9-13-12-10zm-16 13c-2 6 1 9 5 14 1 2 2 3 3 5 2 4 5 7 7 11 2-1 3-1 5-2-3-8-7-13-11-20-1-1-1-1-5-8l-4 0z"/><path fill="#fc721b" transform="translate(382 318)" d="M0 0c6 4 5 6 7 14 1 3 1 7 2 11 1 2 1 4 2 7 2 6 4 11 7 16 1 12-4 18-11 26-4 4-4 4-10 5-6 2-9 4-14 7-10 7-10 7-18 6-13-10-26-29-24-46 4-8 9-15 15-22l3-9c8-20 22-24 41-15z"/><path fill="#071e38" transform="translate(502 275)" d="M0 0c2 3 4 5 6 8 1 1 3 1 4 2 4 10 10 29 4 38l-2 0c0-1 0-1-1-5-3-18-12-31-30-38-19-5-35 0-48 13 0 1 0 1-2 5-2 1-3 3-5 4-1 3-3 5-4 8l2 0 0 3c7-2 7-2 15-7 12-3 21 0 31 8 0 1 0 1 1 4-3 0-5 1-8 1-3 5-5 8-3 14 5 3 8 1 13-2 0-1 0-1 3-6 8 8 7 18 6 28-2 5-3 9-6 14l0 3c9-3 9-3 17-8l2 0c-3 10-10 11-19 15-7 2-13 2-20 2l-7 0c-5 0-5 0-7-1l0-2c-3-1-6-1-9-2-16-18-20-35-14-59 1-1 1-2 2-4-1 0-2-1-3-1 3-20 16-35 34-43 18-6 33-4 48 8z"/><path fill="#fc721b" transform="translate(208 410)" d="M0 0c9 5 18 10 28 13 6 3 6 3 9 8 11 6 20 10 32 12 4 1 9 3 13 4 2 0 4 1 6 1 2 1 3 2 5 2 0 4 0 4-4 12-2 8-2 15-3 23l0 8 0 7c-6-2-8-5-13-9l-21-15c-6-5-6-5-7-8-1 0-1 0-4-1-5-2-9-5-14-7-1-1-1-1-8-4-5-3-11-6-16-10-5-1-9-3-14-5-20-8-20-8-22-10 0-10 5-15 12-22 0-1 1-2 1-3 8-2 13 0 20 4z"/><path fill="#071e38" transform="translate(309 303)" d="M0 0c1 3 2 7 3 10 1 0 1 0 4 1 0 9-2 15-4 24 0 2-1 4-1 5-5 13-17 16-28 19-20 3-34-5-47-19-3-5-3-5-4-11 5 2 7 6 10 10 2 2 2 2 7 3 0-1 0-1-1-8 0-17 5-29 18-41 17-10 30-6 43 7z"/><path fill="#fdc018" transform="translate(603 462)" d="M0 0c8 6 22 16 25 26 1 1 3 1 4 2 12 14 21 31 29 48 1 3 3 6 4 8 15 28 15 28 11 35-1 2-3 3-4 5-1 1-2 3-3 4-17 21-17 21-27 21 0-1 0-1 1-8 0-14 0-27-3-41 0-1 0-1-1-5-4-19-12-36-23-52l0-3c-1-1-3-1-4-2-3-4-5-7-8-11-4-5-9-10-14-14 2-8 5-15 13-13z"/><path fill="#071e38" transform="translate(534 421)" d="M0 0c-2 8-6 7-13 10-4 2-8 3-12 5-2 0-4 1-7 2-5 2-5 2-11 5-6 2-11 3-17 4-5 1-5 1-10 3-43 8-91 15-135 5-4-1-9-1-13-2-12-1-22-4-34-7-4-2-9-3-13-4-10-2-23-6-27-15 9 1 17 4 26 6 5 1 9 2 14 3 1 0 1 0 6 2 9 2 18 3 27 4 1 0 1 1 2 1 4 1 8 1 13 2l7 0c38 4 80 4 117-6 7-2 14-3 21-4 8-2 15-3 23-6 24-8 24-8 36-8z"/><path fill="#fc721b" transform="translate(307 451)" d="M0 0c26 3 26 3 34 6-1 9-1 9-2 13l0 24c0 13 0 13-7 20-10 5-14 4-24 1-12-8-15-16-15-30l0-9c1-9 3-25 14-25z"/><path fill="#fdc018" transform="translate(491 307)" d="M0 0c6 7 8 13 10 22 0 1 1 1 1 2 0 12-3 22-8 33-13 7-13 7-17 6 1-5 1-5 5-14 3-10 1-21-3-30-2 2-2 2-5 7-4 2-4 2-10 2-3-2-3-2-4-9 4-8 4-8 12-9-5-8-12-11-21-11-8 0-13 3-20 7l-5 0c2-9 10-14 18-18 20-4 33-2 47 12z"/><path fill="#fc721b" transform="translate(546 421)" d="M0 0c1 1 1 2 2 3 3 1 5 1 8 2 1 1 1 1 9 4 8 0 12-1 19-4 3 1 3 1 6 6 3 17-4 30-15 43-5-1-5-1-9-8-6-2-6-2-11-2-7-3-7-5-9-12-3-10-6-17-14-25 3-10 3-8 14-7z"/><path fill="#ffffff" transform="translate(505 294)" d="M0 0c8 12 9 22 10 36l0 8c-1 9-5 12-12 18l-3 0c1-4 1-8 2-12 2-18 2-18-4-25-2-4-4-7-6-10-10-13-23-16-39-15-12 2-18 7-27 16l-2 0c1-5 1-5 7-12l2 0c1-2 1-4 2-6 21-21 50-20 70 2z"/><path fill="#fc721b" transform="translate(655 531)" d="M0 0c3 1 3 1 6 7 1 3 3 5 4 8 15 28 15 28 11 35-1 2-3 3-4 5-1 1-2 3-3 4-17 21-17 21-27 21 0-3 1-5 1-8 0-14 0-27-3-41-2-7-2-7-2-13 2-1 4-1 6-2 1-1 1-3 2-4 2-3 5-5 7-8 1-1 1-3 2-4z"/><path fill="#fdc018" transform="translate(304 285)" d="M0 0c7 7 9 10 12 19l3 3c0 5 0 5-2 7-5-1-5-1-7-6-4-10-12-15-23-17-13 0-22 6-30 15-8 13-8 24-8 39-8 0-9-4-14-10l0-2-2 0 0-11 0-6c0-6 0-6 4-14 1-2 1-3 2-5l4-4c1-1 2-3 3-4 16-16 40-16 58-4z"/><path fill="#ffffff" transform="translate(305 272)" d="M0 0c2 4 5 7 7 11l2 3 0 4c-4-1-4-1-7-5-3-1-5-1-8-2-3-1-5-3-8-4-17-3-29 0-43 9-2 3-5 6-7 9l-2 1c-5 12-5 12-5 20 0 3-1 5-1 8l-7 0c-1-5-1-5-1-11l0-7c0-5 0-5 2-9 0-3 1-6 1-9 16-33 48-43 77-18z"/><path fill="#fdc018" transform="translate(270 441)" d="M0 0l12 3c2 1 4 2 6 2 1 1 1 1 6 2 2 1 5 1 7 2 0 4 0 4-4 12-3 8-2 14-3 22l0 9 0 7c-6-2-8-5-13-9l-21-15c-6-5-6-5-7-10 5-25 5-25 17-25z"/><path fill="#fdc018" transform="translate(341 457)" d="M0 0c7-1 7-1 15 0l9 0c8 1 8 1 12 10 0 1 0 1 1 8 0 2 1 4 1 6 0 6 0 6-8 11-3 1-5 3-8 4-9 4-9 4-17 9-6 3-6 3-8 2l0-18 0-10c0-8 0-14 3-22z"/><path fill="#071e38" transform="translate(307 259)" d="M0 0c10 12 15 26 15 42l-1 2-2 0c-4-8-4-8-6-17-10-17-22-27-41-28-17 0-30 9-39 24-1 1-2 3-3 5-1 1-1 2-2 4-1-1-2-1-3-1 0-9 2-14 7-20 1-3 3-6 5-8 21-21 48-26 70-3z"/><path fill="#fdc018" transform="translate(208 410)" d="M0 0c5 3 10 6 15 8 1 2 1 2-2 8l-7 7c-3 5-3 5-4 12-7-1-13-4-20-7-2 0-2 0-8-3-6-3-6-3-7-4 0-10 4-16 12-22 0-1 1-2 1-3 8-2 13 0 20 4z"/><path fill="#fdefd8" transform="translate(382 318)" d="M0 0c6 4 6 6 7 14 0 3 1 7 2 11 1 2 1 4 2 6 0 2 0 3 1 5-4-2-4-2-9-7-9-11-18-15-32-13-7 4-7 4-12 6-1 1-2 1-2 2 4-25 20-35 43-24z"/><path fill="#fc721b" transform="translate(412 457)" d="M0 0l4 10c1 2 1 4 2 6-4 2-4 2-11 4-4 1-7 3-11 4-6 3-11 4-17 5-2-7-2-7-3-15-1-4-1-8-2-12 6-1 12-1 18-2l6 0 14 0z"/><path fill="#071e38" transform="translate(324 372)" d="M0 0c7 1 8 5 12 11 4 7 8 12 14 18 8-1 11-3 17-8 5-2 9-5 14-7 5-4 5-4 11-12l7 0c-1 10-6 16-14 22-2 0-3 1-5 1-6 2-10 4-15 8-10 6-10 6-18 6-12-10-20-24-23-39z"/><path fill="#fc721b" transform="translate(603 462)" d="M0 0c8 6 22 16 25 26-5 7-5 7-11 14-7-2-10-8-14-14-4-5-8-9-13-13 2-8 5-15 13-13z"/><path fill="#fdc018" transform="translate(452 452)" d="M0 0c2 5 2 5 2 10-6 3-12 5-19 7-2 0-4 1-6 2-6 1-6 1-12 1-3-7-3-7-5-14 5-3 11-3 17-4 1 0 1 0 8-1 7-1 7-1 15-1z"/><path fill="#fc721b" transform="translate(491 443)" d="M0 0c3 4 5 7 5 12-31 9-31 9-43 6-1-7-1-7 0-10 5-1 9-2 14-3 2-1 4-1 6-2 3-1 6-1 9-2 4-1 4-1 9-1z"/><path fill="#fc721b" transform="translate(385 396)" d="M0 0c-2 11-9 18-19 22-6 1-10 1-16-1-2-3-2-3-2-6 1 0 1 0 5-1 7-2 13-6 19-11 8-3 8-3 13-3z"/><path fill="#ffffff" transform="translate(474 318)" d="M0 0c3 4 3 4 4 8-3 6-3 6-8 9-6 0-6 0-9-2-2-12 1-15 13-15z"/><path fill="#ffffff" transform="translate(301 304)" d="M0 0c4 4 4 4 4 11-4 4-4 4-10 4-5-4-5-4-5-10 5-5 5-5 11-5z"/><path fill="#ffffff" transform="translate(385 496)" d="M0 0l0 6 7 0c-1 5-1 5-5 7l-4 0c0-2-1-3-1-5-1 0-1 0-9 1-1 0-2-1-3-1 2-7 9-8 15-8z"/><path fill="#ffffff" transform="translate(150 255)" d="M0 0l4 0c0 3-1 6-1 9 0 2 1 3 1 5-2 7-2 7-5 8-1 1-1 2-2 3l-3 0c1-6 1-6 4-12 0-2 1-5 1-7 0-2 1-4 1-6z"/><path fill="#fdefd8" transform="translate(291 276)" d="M0 0c2 1 4 1 6 2 0 1-1 2-1 3-1 0-3-1-4-1-13-4-24-3-36 3-1 0-1-1-2-1 23-13 23-13 37-6z"/><path fill="#ffffff" transform="translate(375 444)" d="M0 0l15 0 8 0 7 0 0 3c-7 1-13 1-20 1l-6 0-5 0c0-1 1-3 1-4z"/><path fill="#fdefd8" transform="translate(451 292)" d="M0 0l2 2c-3 1-6 1-9 2-7 4-12 8-18 14l-2 0c1-5 1-5 7-12l2 0 0-2c1 0 1 0 7-1 4-3 4-3 11-3z"/><path fill="#071e38" transform="translate(344 608)" d="M0 0c3 3 1 10 1 13-2 2-2 2-6 1-2-2-1-10-1-13 1-1 1-1 6-1z"/></svg>