<svg xmlns="http://www.w3.org/2000/svg" viewBox="0 0 395 176" width="395" height="176"><path fill="#071e38" d="M362 52c2 3 3 6 4 10l3 0c8 2 14 4 15 12 1 9 1 9-2 10l-5 0-8 0 0 6c-2 21-9 38-23 52 0 1-1 2-1 3-25 22-61 27-90 12-24-13-37-35-39-61-7-8-15-11-25-8-6 3-10 6-11 13-5 31-29 56-59 63-33 6-66-5-85-35-7-13-11-27-10-41 0-4 0-4-3-5l-4 0c-6-1-6-1-9-3 0-8 2-13 10-16 2-1 5-2 8-2 4-1 4-4 6-8 16-30 48-47 82-42 30 5 58 26 63 58 1 0 1 1 1 2l0 4c3-1 3-1 5-2 10-5 20-4 29 2l2 0c1-2 1-4 2-6 17-67 112-82 144-18z"/><path fill="#fdefd8" d="M105 25l3 0c14 0 28 5 38 14l3 3c19 18 25 47 14 72-4 8-8 15-15 21-1 1-2 2-2 3-6 4-11 7-17 10-1 0-1 0-3 1-26 9-55 2-73-19-8-12-13-24-14-39l0-3c0-18 8-35 22-46 0-1 1-2 2-3 8-7 19-11 30-13 4-2 8-1 12-1zM334 38c1 0 2 1 2 2 22 20 24 50 13 77-4 9-10 17-18 23-1 0-2 1-3 2-7 4-15 8-23 10l-4 0c-17 3-36-1-50-13-1-1-2-1-3-2-12-12-25-36-19-53l0-5c2-13 9-26 19-36 0-1 1-1 1-2 23-21 61-24 85-3z"/><path fill="#ffffff" d="M238 105c0 2 0 2-4 3 0 1 0 1-2 2-1-6 2-5 6-5z"/></svg>