<svg xmlns="http://www.w3.org/2000/svg" viewBox="0 0 395 176" width="395" height="176"><path fill="#071e38" d="M362 52c2 3 3 6 4 10l3 0c8 2 14 4 15 12 1 9 1 9-2 10l-5 0-8 0 0 6c-2 21-9 38-23 52 0 1-1 2-1 3-25 22-61 27-90 12-24-13-37-35-39-61-7-8-15-11-25-8-6 3-10 6-11 13-5 31-29 56-59 63-33 6-66-5-85-35-7-13-11-27-10-41 0-4 0-4-3-5l-4 0c-6-1-6-1-9-3 0-8 2-13 10-16 2-1 5-2 8-2 4-1 4-4 6-8 16-30 48-47 82-42 30 5 58 26 63 58 1 0 1 1 1 2l0 4c3-1 3-1 5-2 10-5 20-4 29 2l2 0c1-2 1-4 2-6 17-67 112-82 144-18z"/><path fill="#fdefd8" d="M105 25l3 0c14 0 28 5 38 14l3 3c19 18 25 47 14 72-4 8-8 15-15 21-1 1-2 2-2 3-6 4-11 7-17 10-1 0-1 0-3 1-26 9-55 2-73-19-8-12-13-24-14-39l0-3c0-18 8-35 22-46 0-1 1-2 2-3 8-7 19-11 30-13 4-2 8-1 12-1zM334 38c1 0 2 1 2 2 22 20 24 50 13 77-4 9-10 17-18 23-1 0-2 1-3 2-7 4-15 8-23 10l-4 0c-17 3-36-1-50-13-1-1-2-1-3-2-12-12-25-36-19-53l0-5c2-13 9-26 19-36 0-1 1-1 1-2 23-21 61-24 85-3z"/><path fill="#071e38" d="M155 69c8 18 6 41-8 55-1 1-2 2-2 3-6 5-17 12-25 10l1 0 0-1c2 0 4-1 6-1 1-1 3-1 5-2l1 0 0-1c-1 1-1 1-2 1-14-1-24-9-29-22-4-14-1-30 12-40 10-7 21-7 32 0 3 3 5 5 7 8-4-13-17-21-30-23-19 0-33 11-40 27-2 5-3 10-4 15l0 1 0 3 0 3-2 0c-7-18 1-37 15-50 22-16 49-9 63 14zM314 54l0 2 2 0c12 14 17 32 8 49l-2 0c1-1 1-2 1-3 0-18-5-35-22-44-18-7-36-4-49 11-4 6-7 11-8 18l0 0c1-1 1-2 1-3 6-11 17-18 30-17 7 2 11 4 16 9 0 1 0 1-1 2l-4 0c-4 3-6 6-4 11 1 3 3 4 6 5 5-2 6-3 8-8 2 0 2 0 3 3 3 15-1 29-13 39-11 6-23 8-33 0-9-10-13-21-13-34l0-3 0-4c1-1 1-2 1-3 1-11 6-19 13-26 1-2 2-2 3-4 4-2 7-5 11-6 2-1 3-2 5-2 15-4 28-1 41 8z"/><path fill="#fdc018" d="M308 76c8 16 7 35-4 50-2 2-4 5-7 6 0 1 0 1 1 2-8 5-17 6-26 3-2 0-3-1-5-1-3-2-3-2-6-3 1-1 1-1 6-1 15 0 25-8 31-22 2-8 2-15 0-24l-2 0c0 2-1 3-1 4-4 3-6 4-11 3-4-5-4-6-3-12 3-3 6-4 10-4-4-7-14-10-22-10-10 3-22 9-25 20l-1 0c2-10 8-19 15-25l3 0c1 0 2-1 3-1 17-8 34 1 44 15zM151 74c3 4 3 4 2 6-1-1-1-2-2-3-7-9-18-12-29-10-14 6-20 17-22 31 1 16 8 28 22 33 3 1 6 1 9 1l2 0c0 1 0 1-3 2-3 1-6 2-9 2l0 1c-5 3-14 1-19-2 0-1 0-1 1-2l-6-6c-13-14-12-35-3-52 15-23 41-23 57-1z"/><path fill="#ffffff" d="M280 54c19-1 33 8 41 26 3 8 4 17 1 26l0 4-3 6c-1 1-1 2-1 4-2 1-3 2-5 4-1 0-1 1-2 2-1 0-2 0-3 1-1 1-2 3-4 4l-2 2 0-1c0-2 2-5 5-6 0-1 1-3 1-4l1 0c1-2 1-3 1-4 1-2 2-3 2-4 1-3 2-5 2-8 0-1 1-2 2-3 0-5 0-5-2-9l0-5c0-4 0-4-2-6 0-1-1-2-2-3-2-6-5-11-10-14-1-1-1-2-2-2-2-3-4-4-7-4-1-1-1-1-1-2l-4 0c-1 0-1-1-2-2l-4 0 0-1 0 0 0-1zM104 62l-4 4c-1 0-1 0-1 1-1 0-2 1-3 1 0 1 0 2-1 3-1 0-2 1-3 1l0 4c-3 7-3 7-6 8l0-2-1 0 0 5 3 0c0 1-1 2-2 3l0 9 0 5c0 4 0 4 2 8 0 2 1 3 1 5 0 1 1 2 1 3 0 0 1 1 1 2 1 2 1 2 4 5l1 3c-4-2-7-4-10-8-2-1-2-2-4-4-4-8-4-8-3-14 0-3 1-6 0-10 1-9 5-17 11-24 2-1 2-2 4-4 6-5 6-5 10-4zM295 80c2 5 2 6-1 11-3 3-6 3-10 1-4-4-4-5-2-11 4-4 8-5 13-1zM148 80c3 5 1 8-2 12-5 0-6 0-10-2-2-4-2-7 0-11 5-4 8-4 12 1z"/><path fill="#071e38" d="M298 134c-5 6-17 6-24 4l0-2 6 0c5 0 9 0 14-2 2-1 2-1 4 0zM111 136l3 0c2 0 2 0 2 2-4 1-10-1-14-3 0-3 7 0 9 1z"/><path fill="#fdefd8" d="M295 80c2 4 2 4 1 6-1-1-1-1-2-6l-3 0c0-1-1-1-1-2l-4 0 0 0c6-1 6-1 9 2z"/><path fill="#ffffff" d="M330 81c2 1 2 1 3 1 0 3 0 3-1 6l-2 0c-1-6-1-6 0-7zM238 105c0 2 0 2-4 3 0 1 0 1-2 2-1-6 2-5 6-5zM163 98c1 2 1 2-1 3-2 1-2 1-4-1 1-4 1-4 5-2z"/></svg>